# xmcd
#
# Track frame offsets:
#	150
#	13200
#	25620
#	39712
#	49585
#	62112
#	71475
#	84520
#	96825
#	105007
#	117272
#	127425
#	140325
#	153512
#
# Disc length: 2334 seconds
#
# Revision: 1
# Processed by: cddbd v1.4PL0 Copyright (c) Steve Scherf et al.
# Submitted via: audiograbber 1.80
#
DISCID=b9091c0e
DTITLE=Merle Haggard - A&E Biography - A [Musical] Anthology
DYEAR=1900
DGENRE=
TTITLE0=Swinging Doors
TTITLE1=Just Between The Two Of Us
TTITLE2=Branded Man
TTITLE3=Mama Tried
TTITLE4=I Take A Lot Of Pride In What I Am
TTITLE5=The Legend Of Bonnie And Clyde
TTITLE6=The Fightin' Side Of Me
TTITLE7=Okie From Muskogee
TTITLE8=Tulare Dust
TTITLE9=Lovesick Blues (Live)
TTITLE10=Movin' On - Theme from the NBC TV series Movin' On
TTITLE11=Hag's Dixie Blues #2
TTITLE12=A Working Man Can't Get Nowhere Today
TTITLE13=Pancho And Lefty
EXTD=
EXTT0=
EXTT1=
EXTT2=
EXTT3=
EXTT4=
EXTT5=
EXTT6=
EXTT7=
EXTT8=
EXTT9=
EXTT10=
EXTT11=
EXTT12=
EXTT13=
PLAYORDER=
